HIERARCHY
ROOT hip
{
	OFFSET 0.000000 0.000000 0.000000 
	CHANNELS 6 Xposition Yposition Zposition Xrotation Zrotation Yrotation
	JOINT abdomen
	{
		OFFSET 0.000000 3.402643 0.000000 
		CHANNELS 3 Xrotation Zrotation Yrotation
		JOINT chest
		{
			OFFSET 0.000000 8.438565 -0.680529 
			CHANNELS 3 Xrotation Zrotation Yrotation
			JOINT neck
			{
				OFFSET 0.000000 10.207942 -0.272212 
				CHANNELS 3 Xrotation Zrotation Yrotation
				JOINT head
				{
					OFFSET 0.000000 3.130431 0.000000 
					CHANNELS 3 Xrotation Zrotation Yrotation
					End Site
					{
						OFFSET 0.000000 3.130435 0.000000 
					}
				}
			}
			JOINT lCollar
			{
				OFFSET 3.470700 6.669187 -0.816635 
				CHANNELS 3 Yrotation Zrotation Xrotation
				JOINT lShldr
				{
					OFFSET 3.198488 0.000000 0.000000 
					CHANNELS 3 Zrotation Yrotation Xrotation
					JOINT lForeArm
					{
						OFFSET 10.139888 0.000000 0.000000 
						CHANNELS 3 Yrotation Zrotation Xrotation
						JOINT lHand
						{
							OFFSET 8.370511 0.000000 0.000000 
							CHANNELS 3 Zrotation Yrotation Xrotation
							End Site
							{
								OFFSET 4.083176 0.000000 0.000000 
							}
						}
					}
				}
			}
			JOINT rCollar
			{
				OFFSET -3.470700 6.669187 -0.816635 
				CHANNELS 3 Yrotation Zrotation Xrotation
				JOINT rShldr
				{
					OFFSET -3.198488 0.000000 0.000000 
					CHANNELS 3 Zrotation Yrotation Xrotation
					JOINT rForeArm
					{
						OFFSET -10.139888 0.000000 0.000000 
						CHANNELS 3 Yrotation Zrotation Xrotation
						JOINT rHand
						{
							OFFSET -8.370511 0.000000 0.000000 
							CHANNELS 3 Zrotation Yrotation Xrotation
							End Site
							{
								OFFSET -4.083176 0.000000 0.000000 
							}
						}
					}
				}
			}
		}
	}
	JOINT lThigh
	{
		OFFSET 5.308129 -1.633274 1.361059 
		CHANNELS 3 Xrotation Zrotation Yrotation
		JOINT lShin
		{
			OFFSET -2.041588 -20.007561 0.000000 
			CHANNELS 3 Xrotation Zrotation Yrotation
			JOINT lFoot
			{
				OFFSET 0.000000 -19.190928 -1.224953 
				CHANNELS 3 Xrotation Yrotation Zrotation
				End Site
				{
					OFFSET 0.000000 -2.449906 4.627600 
				}
			}
		}
	}
	JOINT rThigh
	{
		OFFSET -5.308129 -1.633274 1.361059 
		CHANNELS 3 Xrotation Zrotation Yrotation
		JOINT rShin
		{
			OFFSET 2.041588 -20.007561 0.000000 
			CHANNELS 3 Xrotation Zrotation Yrotation
			JOINT rFoot
			{
				OFFSET 0.000000 -19.190928 -1.224953 
				CHANNELS 3 Xrotation Yrotation Zrotation
				End Site
				{
					OFFSET 0.000000 -2.449906 4.627600 
				}
			}
		}
	}
}
MOTION
Frames: 10
Frame Time: 0.033333
-30.299307 49.300953 -7.240754 -5.748289 0.751595 1.767810 0.000000 0.000000 0.000000 -5.046644 -1.444212 2.236848 13.658962 1.571855 1.309173 18.891766 5.986278 0.236152 18.709400 29.994051 -10.686676 55.639191 -27.218674 -76.343842 -0.190588 6.755713 51.408916 95.062881 -11.886926 -19.614571 -14.877584 -26.818859 -8.262254 -67.497581 19.525726 -62.793365 0.257142 1.246801 48.440674 -81.010262 6.985932 -12.086933 5.473974 -2.731569 2.840752 8.305893 -5.125778 17.741051 -8.834079 -0.340603 4.347980 3.817201 -18.827360 -14.414609 1.981084 0.924849 -8.550998 12.852101 1.258900 11.293907 
-30.202349 49.264923 -7.300335 -6.122799 0.624920 0.918127 0.000000 0.000000 0.000000 -5.133164 -1.531833 2.422576 12.483428 1.669770 0.772010 20.407845 4.511718 -0.029206 18.663286 29.998409 -10.658897 55.553829 -27.644018 -76.523758 -0.159160 6.433828 50.695606 94.173279 -12.030926 -19.515450 -14.486383 -27.413254 -8.375396 -66.664917 19.968374 -62.803391 0.218751 1.720752 46.923065 -80.810570 6.508764 -11.671835 5.563502 -2.771746 3.053817 8.832093 -5.200192 18.198387 -9.191889 -0.363130 4.341498 2.966966 -18.823917 -14.177054 3.265033 0.922289 -8.675807 12.890671 1.238293 10.906794 
-30.120716 49.249275 -7.373813 -6.413994 0.439448 0.263739 0.000000 0.000000 0.000000 -5.219964 -1.444306 2.139223 11.483686 1.835915 0.283371 21.271282 2.568359 0.039461 17.778179 29.993513 -10.377902 55.504147 -27.689003 -75.508438 -0.040970 5.508808 46.355057 93.242577 -12.733938 -19.966757 -14.021481 -28.117828 -8.366508 -66.085266 19.988607 -63.217129 0.141205 2.250002 44.579613 -80.094292 6.256218 -11.351068 5.824066 -2.770015 3.156930 8.772181 -5.208376 18.622126 -9.300949 -0.323276 4.404790 2.010985 -18.787004 -13.866022 4.886850 0.962304 -9.027707 12.623208 1.147102 10.475238 
-30.043003 49.224041 -7.413161 -6.603899 0.253895 -0.527339 0.000000 0.000000 0.000000 -5.441287 -1.317725 1.777772 11.257269 0.839671 1.162271 19.124735 4.677677 0.284649 17.157331 29.993008 -10.343784 55.189407 -27.823965 -75.261681 0.025844 5.046676 43.898849 92.506378 -12.533420 -19.576658 -14.002719 -29.385277 -8.665796 -64.873833 20.236799 -64.477509 0.105727 2.298149 44.268909 -80.091637 6.085105 -11.222300 5.997192 -2.768531 3.268342 8.833343 -5.263190 19.023235 -9.535625 -0.344243 4.462351 1.269326 -18.750254 -13.736758 5.862823 1.175376 -9.324882 12.435442 1.058442 9.789223 
-29.970541 49.241005 -7.442674 -6.709614 0.029290 -1.230469 0.000000 0.000000 0.000000 -5.722563 -1.259427 1.328233 10.527464 0.351424 1.611418 18.516560 5.614920 0.609252 17.211487 29.993229 -10.683357 54.583855 -28.238508 -75.518700 0.111442 4.698872 40.823402 89.095047 -9.283180 -15.560141 -13.824368 -29.916553 -8.833237 -64.211723 20.215704 -64.904282 0.063353 2.623072 43.329147 -80.096481 6.393436 -11.456011 6.200086 -2.674925 3.417943 8.716247 -5.370411 19.143393 -9.512166 -0.376956 4.565032 0.301274 -18.598310 -13.774585 6.535855 1.430004 -11.194263 13.356734 1.006551 8.540309 
-29.897060 49.224483 -7.457449 -6.655189 -0.146400 -1.943378 0.000000 0.000000 0.000000 -6.172083 -1.181476 0.957231 9.745768 -0.009760 1.914063 17.965527 6.132088 0.884309 18.745131 29.991886 -11.784031 53.820057 -29.341803 -76.910843 0.122123 4.903069 41.524948 87.694969 -9.485510 -15.472641 -14.001215 -29.998093 -9.277079 -63.531387 20.212420 -65.580147 -0.000737 2.757466 42.591644 -79.274445 5.633558 -10.742814 5.977691 -2.602837 3.564777 9.106681 -5.455539 19.327749 -9.796590 -0.397297 4.612739 -0.000893 -18.531204 -13.709268 6.405178 1.608739 -10.930237 13.449905 0.953304 8.053987 
-29.822069 49.200333 -7.454447 -6.795979 -0.234132 -2.607480 0.000000 0.000000 0.000000 -6.381107 -1.103428 0.722710 9.071858 -0.731819 2.324403 17.276798 7.284197 0.936343 21.072552 29.988153 -13.031805 52.416740 -30.779943 -79.435257 0.120211 5.610548 43.627174 87.046555 -9.423526 -15.289577 -14.517909 -29.998875 -9.636991 -63.335381 19.930822 -66.164421 -0.030652 2.683158 42.424461 -78.912231 5.334156 -10.460496 6.163974 -2.691136 3.664790 9.088347 -5.506063 19.745386 -9.971854 -0.384986 4.620852 0.624275 -18.563074 -13.715340 5.510108 1.673440 -8.964542 13.250501 0.959716 8.502440 
-29.742609 49.176884 -7.456057 -6.949319 -0.409492 -3.261845 0.000000 0.000000 0.000000 -6.396540 -0.976513 0.576255 8.187407 -0.868426 2.324396 16.573362 7.196451 0.867285 16.308994 29.988947 -11.104671 52.358330 -27.323854 -72.787682 0.208646 4.125547 40.222641 86.319626 -9.149727 -14.876871 -14.823385 -30.000000 -9.763028 -63.114204 19.410975 -66.737373 -0.067697 2.645985 41.691456 -78.448883 5.311697 -10.379586 6.353727 -2.693362 3.774756 9.057395 -5.542666 20.203672 -10.206423 -0.385415 4.645145 0.556100 -18.554058 -13.559175 5.472320 1.684261 -8.312173 13.689819 1.062320 8.851577 
-29.663130 49.175758 -7.451507 -6.839254 -0.526131 -3.886914 0.000000 0.000000 0.000000 -6.748873 -0.986271 0.615311 7.413382 -0.507484 2.060552 16.170000 5.956264 0.923146 16.461651 29.997538 -11.562799 50.887341 -26.962149 -71.406189 0.259252 4.096064 39.096935 85.748398 -9.350119 -14.937470 -14.949346 -30.000000 -10.110816 -63.144073 19.116869 -66.795738 -0.078272 2.653160 41.780151 -78.445671 5.125412 -10.247326 6.258193 -2.772481 3.774348 9.096368 -5.522458 20.825647 -10.250983 -0.417423 4.619444 0.350352 -18.579891 -13.530581 5.229024 1.860401 -7.441364 13.717743 0.997246 8.514984 
-29.574844 49.175434 -7.442807 -6.776125 -0.642586 -4.453502 0.000000 0.000000 0.000000 -7.049347 -0.888633 0.537045 6.806508 -0.546521 2.060639 15.325722 5.868433 0.893999 16.579901 29.994720 -11.944184 49.898022 -26.578249 -70.629890 0.296542 4.141658 38.745544 84.852921 -9.497869 -14.905303 -15.477717 -30.000000 -10.559103 -63.170269 18.857508 -66.532860 -0.083020 2.651865 42.180454 -78.150185 4.838223 -9.982885 6.146212 -2.838174 3.786701 9.164139 -5.553692 21.265999 -10.280626 -0.440450 4.651851 0.087383 -18.563162 -13.482876 5.030802 2.014402 -7.281883 13.901794 0.962036 7.891226 
